<svg width="25" height="24" viewBox="0 0 25 24" fill="none" xmlns="http://www.w3.org/2000/svg">
<g id="mdi:account-cash">
<path id="Vector" d="M11.5 8C11.5 10.21 9.71 12 7.5 12C5.29 12 3.5 10.21 3.5 8C3.5 5.79 5.29 4 7.5 4C9.71 4 11.5 5.79 11.5 8ZM11.5 14.72V20H0.5V18C0.5 15.79 3.63 14 7.5 14C9 14 10.37 14.27 11.5 14.72ZM24.5 20H13.5V3H24.5V20ZM16.5 11.5C16.5 10.837 16.7634 10.2011 17.2322 9.73223C17.7011 9.26339 18.337 9 19 9C19.663 9 20.2989 9.26339 20.7678 9.73223C21.2366 10.2011 21.5 10.837 21.5 11.5C21.5 12.163 21.2366 12.7989 20.7678 13.2678C20.2989 13.7366 19.663 14 19 14C18.337 14 17.7011 13.7366 17.2322 13.2678C16.7634 12.7989 16.5 12.163 16.5 11.5ZM22.5 7C21.9696 7 21.4609 6.78929 21.0858 6.41421C20.7107 6.03914 20.5 5.53043 20.5 5H17.5C17.5 6.11 16.61 7 15.5 7V16C16.0304 16 16.5391 16.2107 16.9142 16.5858C17.2893 16.9609 17.5 17.4696 17.5 18H20.5C20.5 16.9 21.4 16 22.5 16V7Z" fill="#F24822"/>
</g>
</svg>
