<svg width="25" height="24" viewBox="0 0 25 24" fill="none" xmlns="http://www.w3.org/2000/svg">
<g id="famicons:bulb-sharp">
<path id="Vector" d="M10.25 21.75H14.75V23.25H10.25V21.75ZM9.50002 19.5H15.5V21H9.50002V19.5ZM17.8166 2.93862C16.4071 1.52721 14.5189 0.750021 12.5 0.750021C11.5144 0.747672 10.5381 0.940062 9.62712 1.31614C8.71612 1.69222 7.88839 2.24457 7.19148 2.94148C6.49457 3.63839 5.94222 4.46612 5.56614 5.37712C5.19006 6.28812 4.99767 7.26445 5.00002 8.25002C5.00002 10.4353 5.83768 12.4796 7.2969 13.8581L7.50127 14.0499C8.34549 14.8392 9.50002 15.9206 9.50002 16.875V18.75H11.75V12.6146L9.6744 11.4375L10.5313 10.2056L12.5 11.25L14.4355 10.2005L15.3308 11.4042L13.25 12.623V18.75H15.5V16.875C15.5 15.9431 16.6419 14.8627 17.4758 14.0733L17.706 13.8549C19.2069 12.4219 20 10.4817 20 8.25002C20.005 7.26436 19.8146 6.28747 19.4398 5.37582C19.0651 4.46417 18.5133 3.63581 17.8166 2.93862Z" fill="#F24822"/>
</g>
</svg>
