<svg width="25" height="24" viewBox="0 0 25 24" fill="none" xmlns="http://www.w3.org/2000/svg">
<g id="mdi:deal">
<path id="Vector" d="M11.5007 6.0001H14.5007L17.7907 2.7001C17.8837 2.60637 17.9943 2.53197 18.1161 2.4812C18.238 2.43044 18.3687 2.4043 18.5007 2.4043C18.6327 2.4043 18.7634 2.43044 18.8853 2.4812C19.0072 2.53197 19.1178 2.60637 19.2107 2.7001L21.7907 5.2901C21.977 5.47746 22.0815 5.73091 22.0815 5.9951C22.0815 6.25928 21.977 6.51273 21.7907 6.7001L19.5007 9.0001H11.5007V11.0001C11.5007 11.2653 11.3954 11.5197 11.2078 11.7072C11.0203 11.8947 10.7659 12.0001 10.5007 12.0001C10.2355 12.0001 9.98114 11.8947 9.79361 11.7072C9.60607 11.5197 9.50071 11.2653 9.50071 11.0001V8.0001C9.50071 7.46966 9.71143 6.96095 10.0865 6.58588C10.4616 6.21081 10.9703 6.0001 11.5007 6.0001ZM5.50071 11.0001V15.0001L3.21071 17.2901C3.02446 17.4775 2.91992 17.7309 2.91992 17.9951C2.91992 18.2593 3.02446 18.5127 3.21071 18.7001L5.79071 21.2901C5.88368 21.3838 5.99428 21.4582 6.11614 21.509C6.238 21.5598 6.3687 21.5859 6.50071 21.5859C6.63273 21.5859 6.76343 21.5598 6.88529 21.509C7.00715 21.4582 7.11775 21.3838 7.21071 21.2901L11.5007 17.0001H15.5007C15.7659 17.0001 16.0203 16.8947 16.2078 16.7072C16.3954 16.5197 16.5007 16.2653 16.5007 16.0001V15.0001H17.5007C17.7659 15.0001 18.0203 14.8947 18.2078 14.7072C18.3954 14.5197 18.5007 14.2653 18.5007 14.0001V13.0001H19.5007C19.7659 13.0001 20.0203 12.8947 20.2078 12.7072C20.3954 12.5197 20.5007 12.2653 20.5007 12.0001V11.0001H13.5007V12.0001C13.5007 12.5305 13.29 13.0392 12.9149 13.4143C12.5399 13.7894 12.0311 14.0001 11.5007 14.0001H9.50071C8.97028 14.0001 8.46157 13.7894 8.0865 13.4143C7.71143 13.0392 7.50071 12.5305 7.50071 12.0001V9.0001L5.50071 11.0001Z" fill="#F24822"/>
</g>
</svg>
